<svg width="20" height="21" viewBox="0 0 20 21" fill="none" xmlns="http://www.w3.org/2000/svg">
<path d="M9.86395 2.03487C9.9534 2.03487 10.0424 2.03487 10.1318 2.03487C10.2906 2.13592 10.4521 2.23296 10.6077 2.33938C11.0957 2.67252 11.5814 3.00923 12.0684 3.34459C14.1257 4.76119 16.1821 6.17913 18.2412 7.59305C18.4501 7.73614 18.5709 7.90696 18.5709 8.17078C18.5677 11.5848 18.5691 14.9989 18.5682 18.413C18.5682 18.8699 18.2699 19.1691 17.8159 19.1718C17.3973 19.174 16.9791 19.1727 16.5605 19.1718C16.518 19.1718 16.476 19.1642 16.4263 19.1597C16.4263 19.0819 16.4263 19.0157 16.4263 18.9491C16.4263 16.2044 16.4263 13.4598 16.4263 10.7151C16.4263 10.166 16.154 9.89234 15.6056 9.89234C11.8671 9.89189 8.12909 9.89189 4.3906 9.89234C3.84228 9.89234 3.57081 10.1656 3.57081 10.7156C3.57081 13.4656 3.57081 16.2161 3.57081 18.9661C3.57081 19.0309 3.57081 19.0958 3.57081 19.1722C3.13832 19.1722 2.72597 19.1584 2.31495 19.1763C1.87397 19.1955 1.57342 19.0273 1.42852 18.6034C1.42852 15.0557 1.42852 11.5075 1.42852 7.95927C1.5609 7.82289 1.67495 7.66012 1.8279 7.55415C3.83647 6.1617 5.84995 4.7764 7.86388 3.39155C8.52714 2.93545 9.19666 2.48694 9.86395 2.03487Z" stroke="#000032" stroke-width="1.5"/>
</svg>
