<svg width="20" height="21" viewBox="0 0 20 21" fill="none" xmlns="http://www.w3.org/2000/svg">
<path d="M14.1667 17.273C15.0871 17.273 15.8333 16.5268 15.8333 15.6063C15.8333 14.6858 15.0871 13.9396 14.1667 13.9396C13.2462 13.9396 12.5 14.6858 12.5 15.6063C12.5 16.5268 13.2462 17.273 14.1667 17.273Z" stroke="#000032" stroke-width="1.5" stroke-linecap="round" stroke-linejoin="round"/>
<path d="M5.83333 17.273C6.75381 17.273 7.5 16.5268 7.5 15.6063C7.5 14.6858 6.75381 13.9396 5.83333 13.9396C4.91286 13.9396 4.16667 14.6858 4.16667 15.6063C4.16667 16.5268 4.91286 17.273 5.83333 17.273Z" stroke="#000032" stroke-width="1.5" stroke-linecap="round" stroke-linejoin="round"/>
<path d="M9.16667 14.773H12.5M11.25 6.43964H12.0358C13.1275 6.43964 13.6742 6.43964 14.1367 6.70214C14.6 6.9638 14.9083 7.44797 15.5258 8.41547C15.9592 9.0938 16.4125 9.58714 17.0517 10.0246C17.695 10.4663 18.0017 10.6821 18.1708 11.028C18.3333 11.3596 18.3333 11.7521 18.3333 12.5371C18.3333 13.573 18.3333 14.0905 18.0425 14.4196L18.0042 14.4605C17.6983 14.773 17.2158 14.773 16.2525 14.773H15.8333" stroke="#000032" stroke-width="1.5" stroke-linecap="round" stroke-linejoin="round"/>
<path d="M10.8333 6.43964L11.6617 8.5113C12.0675 9.52547 12.27 10.033 12.6942 10.3196C13.1175 10.6063 13.6633 10.6063 14.7567 10.6063H17.5M10.8333 6.43964C10.8333 5.26047 10.8333 4.6713 10.4833 4.3063C10.1333 3.93964 9.56917 3.93964 8.44167 3.93964H4.05833C2.93083 3.93964 2.36667 3.94047 2.01667 4.3063C1.66667 4.67214 1.66667 5.2613 1.66667 6.43964V12.273C1.66667 13.4521 1.66667 14.0413 2.01667 14.4063C2.36667 14.773 2.93083 14.773 4.05833 14.773M10.8333 6.43964V14.773H7.24667" stroke="#000032" stroke-width="1.5" stroke-linecap="round" stroke-linejoin="round"/>
</svg>
