<svg width="20" height="21" viewBox="0 0 20 21" fill="none" xmlns="http://www.w3.org/2000/svg">
<path d="M2.49228 5.93196C2.49228 4.09113 3.9847 2.59863 5.82562 2.59863H9.15895C10.9998 2.59863 12.4923 4.09113 12.4923 5.93196C12.4923 6.39196 12.1189 6.7653 11.6589 6.7653C11.1989 6.7653 10.8256 6.39196 10.8256 5.93196C10.8256 5.01113 10.0798 4.2653 9.15895 4.2653H5.82562C4.90512 4.2653 4.15895 5.01113 4.15895 5.93196V14.2653C4.15895 15.1861 4.90512 15.932 5.82562 15.932H9.15895C10.0798 15.932 10.8256 15.1861 10.8256 14.2653C10.8256 13.8053 11.1989 13.432 11.6589 13.432C12.1189 13.432 12.4923 13.8053 12.4923 14.2653C12.4923 16.1061 10.9998 17.5986 9.15895 17.5986H5.82562C3.9847 17.5986 2.49228 16.1061 2.49228 14.2653V5.93196ZM8.32562 10.0986C8.32562 9.63863 8.69895 9.26529 9.15895 9.26529H15.4615L13.8206 7.59863L14.9923 6.42696L18.0914 9.49946C18.4164 9.8253 18.4164 10.372 18.0914 10.6978L14.9923 13.7703L13.8206 12.5986L15.4615 10.932H9.15895C8.69895 10.932 8.32562 10.5586 8.32562 10.0986Z" fill="#000032"/>
</svg>
