<svg width="20" height="21" viewBox="0 0 20 21" fill="none" xmlns="http://www.w3.org/2000/svg">
<path d="M9.86395 2.03485C9.9534 2.03485 10.0424 2.03485 10.1318 2.03485C10.2906 2.13591 10.4521 2.23294 10.6077 2.33937C11.0957 2.6725 11.5814 3.00921 12.0684 3.34458C14.1257 4.76118 16.1821 6.17912 18.2412 7.59304C18.4501 7.73613 18.5709 7.90694 18.5709 8.17076C18.5677 11.5848 18.5691 14.9989 18.5682 18.4129C18.5682 18.8699 18.2699 19.1691 17.8159 19.1718C17.3973 19.174 16.9791 19.1727 16.5605 19.1718C16.518 19.1718 16.476 19.1642 16.4263 19.1597C16.4263 19.0819 16.4263 19.0157 16.4263 18.9491C16.4263 16.2044 16.4263 13.4598 16.4263 10.7151C16.4263 10.166 16.154 9.89233 15.6056 9.89233C11.8671 9.89188 8.12909 9.89188 4.3906 9.89233C3.84228 9.89233 3.57081 10.1655 3.57081 10.7155C3.57081 13.4656 3.57081 16.216 3.57081 18.9661C3.57081 19.0309 3.57081 19.0957 3.57081 19.1722C3.13832 19.1722 2.72597 19.1583 2.31495 19.1762C1.87397 19.1955 1.57342 19.0273 1.42852 18.6034C1.42852 15.0557 1.42852 11.5075 1.42852 7.95926C1.5609 7.82288 1.67495 7.66011 1.8279 7.55413C3.83647 6.16168 5.84995 4.77638 7.86388 3.39153C8.52714 2.93543 9.19666 2.48693 9.86395 2.03485Z" stroke="#000032" stroke-width="1.5"/>
<path d="M9.2127 11.572C9.21251 11.6598 9.21251 11.7471 9.21367 11.8337V11.8347C9.2201 12.2749 9.54119 12.6292 9.98711 12.6345C10.4448 12.6398 10.7763 12.288 10.784 11.8357C10.7854 11.7487 10.7842 11.6603 10.784 11.572C11.1428 11.57 11.4831 11.567 11.826 11.5789C11.847 11.5796 11.8581 11.5863 11.866 11.5955C11.8758 11.6069 11.8882 11.6311 11.8885 11.6707V14.531C11.8882 14.5756 11.8734 14.5972 11.8621 14.6082C11.8501 14.6198 11.8239 14.6363 11.7723 14.6365C10.5898 14.6396 9.40693 14.6396 8.22441 14.6365C8.16944 14.6363 8.14541 14.6192 8.13555 14.6091C8.12516 14.5984 8.10753 14.5722 8.10723 14.5144C8.1041 13.5724 8.10454 12.6295 8.10723 11.6873C8.10736 11.6352 8.12302 11.6062 8.13262 11.5945C8.1371 11.5891 8.14119 11.5858 8.14531 11.5837C8.14942 11.5817 8.15726 11.5785 8.1707 11.5779C8.51364 11.5653 8.85363 11.5698 9.2127 11.572Z" stroke="#000032" stroke-width="0.5"/>
<path d="M11.7156 16.1211C11.7242 16.5644 12.0376 16.9152 12.4881 16.9199C12.9325 16.9244 13.2646 16.5866 13.284 16.1426V16.1416C13.2879 16.0473 13.2857 15.9503 13.285 15.8545C13.6411 15.8522 13.9755 15.8485 14.3133 15.8613C14.3347 15.8621 14.3457 15.8663 14.3494 15.8682C14.3527 15.8698 14.3557 15.8729 14.3602 15.8789C14.3711 15.8938 14.3918 15.9368 14.3924 16.0283C14.3946 16.5127 14.3934 16.9963 14.3934 17.4824C14.3934 17.902 14.3956 18.3181 14.3934 18.7354C14.3926 18.8556 14.3656 18.8861 14.3611 18.8906C14.3567 18.895 14.3254 18.9226 14.202 18.9229H10.7898C10.6659 18.9229 10.6378 18.8957 10.6365 18.8945C10.6338 18.8917 10.6094 18.8629 10.6092 18.7471C10.6078 17.8386 10.6074 16.9302 10.6092 16.0215L10.6131 15.9521C10.6204 15.8986 10.6351 15.8824 10.6375 15.8799C10.6403 15.877 10.6682 15.8515 10.7811 15.8506C11.0884 15.8481 11.3957 15.8491 11.7156 15.8496V16.1211Z" stroke="#000032" stroke-width="0.5"/>
<path d="M5.82012 15.8495C6.113 15.8484 6.40532 15.8493 6.70977 15.8495C6.70966 15.9288 6.70886 16.0052 6.70977 16.0809C6.71239 16.3089 6.78472 16.5199 6.92852 16.6766C7.07422 16.8354 7.27747 16.9209 7.50274 16.9198C7.72441 16.9185 7.92428 16.8332 8.06719 16.6756C8.17292 16.559 8.23926 16.4132 8.26641 16.2528L8.28008 16.0887C8.28099 16.0099 8.28117 15.9305 8.28106 15.8514C8.60439 15.8498 8.92405 15.8469 9.24395 15.8514C9.32331 15.8526 9.35298 15.874 9.36113 15.8817C9.36405 15.8845 9.36974 15.8904 9.37481 15.9032L9.38555 15.9696C9.38957 16.916 9.38957 17.863 9.38555 18.8094C9.38533 18.8625 9.36826 18.8863 9.35918 18.8954C9.34997 18.9044 9.32744 18.9205 9.27617 18.9207H5.71465C5.67033 18.9206 5.65028 18.907 5.64043 18.8973C5.62888 18.8859 5.61014 18.8585 5.60527 18.8016C5.598 18.7161 5.60234 18.6391 5.60234 18.5223C5.60234 17.7027 5.6019 16.8837 5.60234 16.0643C5.60254 15.9198 5.63213 15.8871 5.63555 15.8836C5.63785 15.8814 5.65649 15.8631 5.72832 15.8543L5.82012 15.8495Z" stroke="#000032" stroke-width="0.5"/>
</svg>
