<svg width="20" height="21" viewBox="0 0 20 21" fill="none" xmlns="http://www.w3.org/2000/svg">
<path d="M10.4964 12.1888L7.74691 12.5821L8.13948 9.83188L15.2103 2.76109C15.5228 2.44854 15.9467 2.27295 16.3887 2.27295C16.8307 2.27295 17.2547 2.44854 17.5672 2.76109C17.8798 3.07363 18.0553 3.49754 18.0553 3.93955C18.0553 4.38156 17.8798 4.80547 17.5672 5.11802L10.4964 12.1888Z" stroke="#000032" stroke-width="1.2" stroke-linecap="round" stroke-linejoin="round"/>
<path d="M15.278 12.2732V17.8285C15.278 18.1232 15.161 18.4058 14.9526 18.6142C14.7443 18.8225 14.4617 18.9396 14.167 18.9396H3.05637C2.7617 18.9396 2.4791 18.8225 2.27073 18.6142C2.06237 18.4058 1.94531 18.1232 1.94531 17.8285V6.71793C1.94531 6.42326 2.06237 6.14066 2.27073 5.93229C2.4791 5.72393 2.7617 5.60687 3.05637 5.60687H8.61168" stroke="#000032" stroke-width="1.5" stroke-linecap="round" stroke-linejoin="round"/>
</svg>
